<?xml version="1.0" standalone="no"?>
<!DOCTYPE svg PUBLIC "-//W3C//DTD SVG 20010904//EN"
 "http://www.w3.org/TR/2001/REC-SVG-20010904/DTD/svg10.dtd">
<svg version="1.0" xmlns="http://www.w3.org/2000/svg"
 width="500.000000pt" height="500.000000pt" viewBox="0 0 500.000000 500.000000"
 preserveAspectRatio="xMidYMid meet">

<g transform="translate(0.000000,500.000000) scale(0.100000,-0.100000)"
fill="#000000" stroke="none">
<path d="M3502 4577 c-25 -27 -28 -64 -8 -93 8 -11 179 -100 380 -199 201 -98
363 -182 359 -185 -5 -4 -51 -12 -103 -19 -370 -47 -806 -184 -1192 -376 -886
-441 -1589 -1165 -2124 -2190 -158 -304 -424 -957 -424 -1044 0 -61 72 -93
118 -53 12 10 40 73 66 150 319 932 846 1774 1456 2327 528 478 1096 793 1735
960 236 62 573 114 564 87 -2 -6 -107 -116 -234 -244 -356 -361 -405 -413
-405 -436 0 -36 42 -75 81 -74 30 1 50 18 183 154 83 84 264 268 403 408 235
238 253 258 253 291 0 22 -7 42 -18 52 -31 28 -1016 507 -1043 507 -14 0 -35
-10 -47 -23z"/>
</g>
</svg>
